<svg xmlns="http://www.w3.org/2000/svg" width="911" height="156"><style>.st1{fill:#454545;font-family:微软雅黑;font-size:13pt}</style><g transform="translate(-111 -149)"><g id="shape1"><path d="M113 151h152v57H113v-57z" fill="#fff" stroke="#7030a0" stroke-width="2" stroke-dasharray="11,5"/><text class="st1" transform="translate(113 151)"><tspan x="14" y="34">中国大学MOOC</tspan></text></g><g id="shape2"><path d="M302 151h152v57H302v-57z" fill="#fff" stroke="#7030a0" stroke-width="2" stroke-dasharray="11,5"/><text class="st1" transform="translate(302 151)"><tspan x="42" y="34">学堂在线</tspan></text></g><g id="shape3"><path d="M491 151h152v57H491v-57z" fill="#fff" stroke="#7030a0" stroke-width="2" stroke-dasharray="11,5"/><text class="st1" transform="translate(491 151)"><tspan x="34" y="34">好大学在线</tspan></text></g><g id="shape4"><path d="M679 151h152v57H679v-57z" fill="#fff" stroke="#7030a0" stroke-width="2" stroke-dasharray="11,5"/><text class="st1" transform="translate(679 151)"><tspan x="34" y="22.5">网易云课堂 </tspan> <tspan x="29" y="45.5">MOOC 课程</tspan></text></g><g id="shape5"><path d="M868 151h152v57H868v-57z" fill="#fff" stroke="#7030a0" stroke-width="2" stroke-dasharray="11,5"/><text class="st1" transform="translate(868 151)"><tspan x="51" y="34">爱课程</tspan></text></g><g id="shape6"><path d="M113 246h152v57H113v-57z" fill="#fff" stroke="#7030a0" stroke-width="2" stroke-dasharray="11,5"/><text class="st1" transform="translate(113 246)"><tspan x="42" y="34">多所名校</tspan></text></g><g id="shape7"><path d="M302 246h152v57H302v-57z" fill="#fff" stroke="#7030a0" stroke-width="2" stroke-dasharray="11,5"/><text class="st1" transform="translate(302 246)"><tspan x="42" y="34">清华大学</tspan></text></g><g id="shape8"><path d="M491 246h152v57H491v-57z" fill="#fff" stroke="#7030a0" stroke-width="2" stroke-dasharray="11,5"/><text class="st1" transform="translate(491 246)"><tspan x="25" y="34">上海交通大学</tspan></text></g><g id="shape9"><path d="M679 246h152v57H679v-57z" fill="#fff" stroke="#7030a0" stroke-width="2" stroke-dasharray="11,5"/><text class="st1" transform="translate(679 246)"><tspan x="8" y="34">计算机和深度学习</tspan></text></g><g id="shape10"><path d="M868 246h152v57H868v-57z" fill="#fff" stroke="#7030a0" stroke-width="2" stroke-dasharray="11,5"/><text class="st1" transform="translate(868 246)"><tspan x="42" y="34">资源丰富</tspan></text></g><path d="M189 208v38" fill="none" stroke="#7030a0" id="shape11" stroke-width="2"/><path d="M378 208v38" fill="none" stroke="#7030a0" id="shape12" stroke-width="2"/><path d="M567 208v38" fill="none" stroke="#7030a0" id="shape13" stroke-width="2"/><path d="M755 208v38" fill="none" stroke="#7030a0" id="shape14" stroke-width="2"/><path d="M944 208v38" fill="none" stroke="#7030a0" id="shape15" stroke-width="2"/></g></svg>